<mxfile host="app.diagrams.net" modified="2022-03-27T16:07:13.490Z" agent="5.0 (Windows NT 10.0; Win64; x64) AppleWebKit/537.36 (KHTML, like Gecko) Chrome/99.0.4844.84 Safari/537.36" etag="2wqMMWXJCEpJGaT8TFt5" version="17.1.3" type="github">
  <diagram name="Page-1" id="edf60f1a-56cd-e834-aa8a-f176f3a09ee4">
    <mxGraphModel dx="1483" dy="781" grid="1" gridSize="10" guides="1" tooltips="1" connect="1" arrows="1" fold="1" page="1" pageScale="1" pageWidth="1100" pageHeight="850" background="none" math="0" shadow="0">
      <root>
        <mxCell id="0" />
        <mxCell id="1" parent="0" />
        <mxCell id="oRRYTDGzjBKv7AgCxOXw-3" value="" style="edgeStyle=orthogonalEdgeStyle;rounded=0;orthogonalLoop=1;jettySize=auto;html=1;" edge="1" parent="1" source="oRRYTDGzjBKv7AgCxOXw-1">
          <mxGeometry relative="1" as="geometry">
            <mxPoint x="540.0999999999999" y="70" as="targetPoint" />
          </mxGeometry>
        </mxCell>
        <mxCell id="oRRYTDGzjBKv7AgCxOXw-1" value="START" style="ellipse;whiteSpace=wrap;html=1;" vertex="1" parent="1">
          <mxGeometry x="480" y="10" width="120" height="40" as="geometry" />
        </mxCell>
        <mxCell id="oRRYTDGzjBKv7AgCxOXw-8" style="edgeStyle=orthogonalEdgeStyle;rounded=0;orthogonalLoop=1;jettySize=auto;html=1;exitX=1;exitY=0.5;exitDx=0;exitDy=0;entryX=0.5;entryY=0;entryDx=0;entryDy=0;" edge="1" parent="1" source="oRRYTDGzjBKv7AgCxOXw-5" target="oRRYTDGzjBKv7AgCxOXw-6">
          <mxGeometry relative="1" as="geometry" />
        </mxCell>
        <mxCell id="oRRYTDGzjBKv7AgCxOXw-9" style="edgeStyle=orthogonalEdgeStyle;rounded=0;orthogonalLoop=1;jettySize=auto;html=1;entryX=0.5;entryY=0;entryDx=0;entryDy=0;" edge="1" parent="1" source="oRRYTDGzjBKv7AgCxOXw-5" target="oRRYTDGzjBKv7AgCxOXw-7">
          <mxGeometry relative="1" as="geometry" />
        </mxCell>
        <mxCell id="oRRYTDGzjBKv7AgCxOXw-5" value="Does the guest has an account?" style="rhombus;whiteSpace=wrap;html=1;" vertex="1" parent="1">
          <mxGeometry x="435" y="70" width="210" height="80" as="geometry" />
        </mxCell>
        <mxCell id="oRRYTDGzjBKv7AgCxOXw-15" value="" style="edgeStyle=orthogonalEdgeStyle;rounded=0;orthogonalLoop=1;jettySize=auto;html=1;" edge="1" parent="1" source="oRRYTDGzjBKv7AgCxOXw-6" target="oRRYTDGzjBKv7AgCxOXw-14">
          <mxGeometry relative="1" as="geometry" />
        </mxCell>
        <mxCell id="oRRYTDGzjBKv7AgCxOXw-6" value="Guest signs in" style="rounded=0;whiteSpace=wrap;html=1;" vertex="1" parent="1">
          <mxGeometry x="720" y="160" width="120" height="60" as="geometry" />
        </mxCell>
        <mxCell id="oRRYTDGzjBKv7AgCxOXw-13" value="" style="edgeStyle=orthogonalEdgeStyle;rounded=0;orthogonalLoop=1;jettySize=auto;html=1;" edge="1" parent="1" source="oRRYTDGzjBKv7AgCxOXw-7" target="oRRYTDGzjBKv7AgCxOXw-12">
          <mxGeometry relative="1" as="geometry" />
        </mxCell>
        <mxCell id="oRRYTDGzjBKv7AgCxOXw-7" value="Guest creates an account" style="rounded=0;whiteSpace=wrap;html=1;" vertex="1" parent="1">
          <mxGeometry x="240" y="160" width="120" height="60" as="geometry" />
        </mxCell>
        <mxCell id="oRRYTDGzjBKv7AgCxOXw-10" value="YES" style="text;html=1;align=center;verticalAlign=middle;resizable=0;points=[];autosize=1;strokeColor=none;fillColor=none;" vertex="1" parent="1">
          <mxGeometry x="720" y="80" width="40" height="20" as="geometry" />
        </mxCell>
        <mxCell id="oRRYTDGzjBKv7AgCxOXw-11" value="NO" style="text;html=1;align=center;verticalAlign=middle;resizable=0;points=[];autosize=1;strokeColor=none;fillColor=none;" vertex="1" parent="1">
          <mxGeometry x="330" y="80" width="30" height="20" as="geometry" />
        </mxCell>
        <mxCell id="oRRYTDGzjBKv7AgCxOXw-22" style="edgeStyle=orthogonalEdgeStyle;rounded=0;orthogonalLoop=1;jettySize=auto;html=1;exitX=0.5;exitY=1;exitDx=0;exitDy=0;entryX=0.5;entryY=0;entryDx=0;entryDy=0;" edge="1" parent="1" source="oRRYTDGzjBKv7AgCxOXw-12" target="oRRYTDGzjBKv7AgCxOXw-20">
          <mxGeometry relative="1" as="geometry">
            <Array as="points">
              <mxPoint x="300" y="420" />
              <mxPoint x="540" y="420" />
            </Array>
          </mxGeometry>
        </mxCell>
        <mxCell id="oRRYTDGzjBKv7AgCxOXw-12" value="Full name&lt;br&gt;e-mail&lt;br&gt;phone number&lt;br&gt;password" style="shape=parallelogram;perimeter=parallelogramPerimeter;whiteSpace=wrap;html=1;fixedSize=1;rounded=0;" vertex="1" parent="1">
          <mxGeometry x="240" y="240" width="120" height="60" as="geometry" />
        </mxCell>
        <mxCell id="oRRYTDGzjBKv7AgCxOXw-17" value="" style="edgeStyle=orthogonalEdgeStyle;rounded=0;orthogonalLoop=1;jettySize=auto;html=1;" edge="1" parent="1" source="oRRYTDGzjBKv7AgCxOXw-14" target="oRRYTDGzjBKv7AgCxOXw-16">
          <mxGeometry relative="1" as="geometry" />
        </mxCell>
        <mxCell id="oRRYTDGzjBKv7AgCxOXw-14" value="Login&lt;br&gt;password" style="shape=parallelogram;perimeter=parallelogramPerimeter;whiteSpace=wrap;html=1;fixedSize=1;rounded=0;" vertex="1" parent="1">
          <mxGeometry x="720" y="240" width="120" height="60" as="geometry" />
        </mxCell>
        <mxCell id="oRRYTDGzjBKv7AgCxOXw-18" style="edgeStyle=orthogonalEdgeStyle;rounded=0;orthogonalLoop=1;jettySize=auto;html=1;exitX=1;exitY=0.5;exitDx=0;exitDy=0;entryX=1;entryY=0.5;entryDx=0;entryDy=0;" edge="1" parent="1" source="oRRYTDGzjBKv7AgCxOXw-16" target="oRRYTDGzjBKv7AgCxOXw-6">
          <mxGeometry relative="1" as="geometry">
            <Array as="points">
              <mxPoint x="960" y="360" />
              <mxPoint x="960" y="190" />
            </Array>
          </mxGeometry>
        </mxCell>
        <mxCell id="oRRYTDGzjBKv7AgCxOXw-23" style="edgeStyle=orthogonalEdgeStyle;rounded=0;orthogonalLoop=1;jettySize=auto;html=1;entryX=0.5;entryY=0;entryDx=0;entryDy=0;" edge="1" parent="1" source="oRRYTDGzjBKv7AgCxOXw-16" target="oRRYTDGzjBKv7AgCxOXw-20">
          <mxGeometry relative="1" as="geometry">
            <Array as="points">
              <mxPoint x="780" y="420" />
              <mxPoint x="540" y="420" />
            </Array>
          </mxGeometry>
        </mxCell>
        <mxCell id="oRRYTDGzjBKv7AgCxOXw-16" value="Correct login and password?" style="rhombus;whiteSpace=wrap;html=1;rounded=0;" vertex="1" parent="1">
          <mxGeometry x="685" y="320" width="190" height="80" as="geometry" />
        </mxCell>
        <mxCell id="oRRYTDGzjBKv7AgCxOXw-19" value="NO" style="text;html=1;align=center;verticalAlign=middle;resizable=0;points=[];autosize=1;strokeColor=none;fillColor=none;" vertex="1" parent="1">
          <mxGeometry x="900" y="330" width="30" height="20" as="geometry" />
        </mxCell>
        <mxCell id="oRRYTDGzjBKv7AgCxOXw-25" style="edgeStyle=orthogonalEdgeStyle;rounded=0;orthogonalLoop=1;jettySize=auto;html=1;entryX=0.5;entryY=0;entryDx=0;entryDy=0;" edge="1" parent="1" source="oRRYTDGzjBKv7AgCxOXw-20" target="oRRYTDGzjBKv7AgCxOXw-24">
          <mxGeometry relative="1" as="geometry" />
        </mxCell>
        <mxCell id="oRRYTDGzjBKv7AgCxOXw-20" value="Login" style="whiteSpace=wrap;html=1;rounded=0;" vertex="1" parent="1">
          <mxGeometry x="480" y="450" width="120" height="60" as="geometry" />
        </mxCell>
        <mxCell id="oRRYTDGzjBKv7AgCxOXw-28" value="" style="edgeStyle=orthogonalEdgeStyle;rounded=0;orthogonalLoop=1;jettySize=auto;html=1;" edge="1" parent="1" source="oRRYTDGzjBKv7AgCxOXw-24" target="oRRYTDGzjBKv7AgCxOXw-27">
          <mxGeometry relative="1" as="geometry" />
        </mxCell>
        <mxCell id="oRRYTDGzjBKv7AgCxOXw-24" value="Search rooms" style="rounded=0;whiteSpace=wrap;html=1;" vertex="1" parent="1">
          <mxGeometry x="480" y="530" width="120" height="60" as="geometry" />
        </mxCell>
        <mxCell id="oRRYTDGzjBKv7AgCxOXw-29" style="edgeStyle=orthogonalEdgeStyle;rounded=0;orthogonalLoop=1;jettySize=auto;html=1;entryX=0;entryY=0.5;entryDx=0;entryDy=0;" edge="1" parent="1" source="oRRYTDGzjBKv7AgCxOXw-27" target="oRRYTDGzjBKv7AgCxOXw-24">
          <mxGeometry relative="1" as="geometry">
            <Array as="points">
              <mxPoint x="350" y="650" />
              <mxPoint x="350" y="560" />
            </Array>
          </mxGeometry>
        </mxCell>
        <mxCell id="oRRYTDGzjBKv7AgCxOXw-34" value="" style="edgeStyle=orthogonalEdgeStyle;rounded=0;orthogonalLoop=1;jettySize=auto;html=1;" edge="1" parent="1" source="oRRYTDGzjBKv7AgCxOXw-27" target="oRRYTDGzjBKv7AgCxOXw-33">
          <mxGeometry relative="1" as="geometry" />
        </mxCell>
        <mxCell id="oRRYTDGzjBKv7AgCxOXw-27" value="Is the room available?" style="rhombus;whiteSpace=wrap;html=1;rounded=0;" vertex="1" parent="1">
          <mxGeometry x="410" y="610" width="260" height="80" as="geometry" />
        </mxCell>
        <mxCell id="oRRYTDGzjBKv7AgCxOXw-30" value="NO" style="text;html=1;align=center;verticalAlign=middle;resizable=0;points=[];autosize=1;strokeColor=none;fillColor=none;" vertex="1" parent="1">
          <mxGeometry x="370" y="620" width="30" height="20" as="geometry" />
        </mxCell>
        <mxCell id="oRRYTDGzjBKv7AgCxOXw-36" value="" style="edgeStyle=orthogonalEdgeStyle;rounded=0;orthogonalLoop=1;jettySize=auto;html=1;" edge="1" parent="1" source="oRRYTDGzjBKv7AgCxOXw-33" target="oRRYTDGzjBKv7AgCxOXw-35">
          <mxGeometry relative="1" as="geometry" />
        </mxCell>
        <mxCell id="oRRYTDGzjBKv7AgCxOXw-33" value="&lt;span&gt;Check in/check out&amp;nbsp;&lt;/span&gt;&lt;br&gt;&lt;span&gt;dates&lt;/span&gt;" style="shape=parallelogram;perimeter=parallelogramPerimeter;whiteSpace=wrap;html=1;fixedSize=1;rounded=0;" vertex="1" parent="1">
          <mxGeometry x="470" y="710" width="140" height="60" as="geometry" />
        </mxCell>
        <mxCell id="oRRYTDGzjBKv7AgCxOXw-43" value="" style="edgeStyle=orthogonalEdgeStyle;rounded=0;orthogonalLoop=1;jettySize=auto;html=1;" edge="1" parent="1" source="oRRYTDGzjBKv7AgCxOXw-35" target="oRRYTDGzjBKv7AgCxOXw-42">
          <mxGeometry relative="1" as="geometry" />
        </mxCell>
        <mxCell id="oRRYTDGzjBKv7AgCxOXw-35" value="Book room" style="whiteSpace=wrap;html=1;rounded=0;" vertex="1" parent="1">
          <mxGeometry x="480" y="790" width="120" height="60" as="geometry" />
        </mxCell>
        <mxCell id="oRRYTDGzjBKv7AgCxOXw-44" style="edgeStyle=orthogonalEdgeStyle;rounded=0;orthogonalLoop=1;jettySize=auto;html=1;" edge="1" parent="1" source="oRRYTDGzjBKv7AgCxOXw-42">
          <mxGeometry relative="1" as="geometry">
            <mxPoint x="760" y="990" as="targetPoint" />
          </mxGeometry>
        </mxCell>
        <mxCell id="oRRYTDGzjBKv7AgCxOXw-45" style="edgeStyle=orthogonalEdgeStyle;rounded=0;orthogonalLoop=1;jettySize=auto;html=1;exitX=0;exitY=0.5;exitDx=0;exitDy=0;" edge="1" parent="1" source="oRRYTDGzjBKv7AgCxOXw-42">
          <mxGeometry relative="1" as="geometry">
            <mxPoint x="320" y="990" as="targetPoint" />
          </mxGeometry>
        </mxCell>
        <mxCell id="oRRYTDGzjBKv7AgCxOXw-42" value="Cash payment?" style="rhombus;whiteSpace=wrap;html=1;rounded=0;" vertex="1" parent="1">
          <mxGeometry x="465" y="870" width="150" height="80" as="geometry" />
        </mxCell>
        <mxCell id="oRRYTDGzjBKv7AgCxOXw-49" value="" style="edgeStyle=orthogonalEdgeStyle;rounded=0;orthogonalLoop=1;jettySize=auto;html=1;" edge="1" parent="1" source="oRRYTDGzjBKv7AgCxOXw-46" target="oRRYTDGzjBKv7AgCxOXw-48">
          <mxGeometry relative="1" as="geometry" />
        </mxCell>
        <mxCell id="oRRYTDGzjBKv7AgCxOXw-46" value="Guest come to the hotel" style="rounded=0;whiteSpace=wrap;html=1;" vertex="1" parent="1">
          <mxGeometry x="260" y="990" width="120" height="80" as="geometry" />
        </mxCell>
        <mxCell id="oRRYTDGzjBKv7AgCxOXw-55" style="edgeStyle=orthogonalEdgeStyle;rounded=0;orthogonalLoop=1;jettySize=auto;html=1;entryX=0.5;entryY=0;entryDx=0;entryDy=0;" edge="1" parent="1" source="oRRYTDGzjBKv7AgCxOXw-47" target="oRRYTDGzjBKv7AgCxOXw-54">
          <mxGeometry relative="1" as="geometry">
            <mxPoint x="560" y="1270" as="targetPoint" />
            <Array as="points">
              <mxPoint x="760" y="1240" />
              <mxPoint x="560" y="1240" />
            </Array>
          </mxGeometry>
        </mxCell>
        <mxCell id="oRRYTDGzjBKv7AgCxOXw-47" value="Guest pays by bank account to the&amp;nbsp;requisites that has shown in the website" style="rounded=0;whiteSpace=wrap;html=1;" vertex="1" parent="1">
          <mxGeometry x="700" y="990" width="120" height="80" as="geometry" />
        </mxCell>
        <mxCell id="oRRYTDGzjBKv7AgCxOXw-51" value="" style="edgeStyle=orthogonalEdgeStyle;rounded=0;orthogonalLoop=1;jettySize=auto;html=1;" edge="1" parent="1" source="oRRYTDGzjBKv7AgCxOXw-48" target="oRRYTDGzjBKv7AgCxOXw-50">
          <mxGeometry relative="1" as="geometry" />
        </mxCell>
        <mxCell id="oRRYTDGzjBKv7AgCxOXw-48" value="Receptionist finds guest in the list" style="whiteSpace=wrap;html=1;rounded=0;" vertex="1" parent="1">
          <mxGeometry x="260" y="1090" width="120" height="60" as="geometry" />
        </mxCell>
        <mxCell id="oRRYTDGzjBKv7AgCxOXw-57" style="edgeStyle=orthogonalEdgeStyle;rounded=0;orthogonalLoop=1;jettySize=auto;html=1;entryX=0.5;entryY=0;entryDx=0;entryDy=0;" edge="1" parent="1" source="oRRYTDGzjBKv7AgCxOXw-50" target="oRRYTDGzjBKv7AgCxOXw-54">
          <mxGeometry relative="1" as="geometry">
            <Array as="points">
              <mxPoint x="320" y="1240" />
              <mxPoint x="560" y="1240" />
            </Array>
          </mxGeometry>
        </mxCell>
        <mxCell id="oRRYTDGzjBKv7AgCxOXw-50" value="Guest pays by cash" style="whiteSpace=wrap;html=1;rounded=0;" vertex="1" parent="1">
          <mxGeometry x="260" y="1170" width="120" height="60" as="geometry" />
        </mxCell>
        <mxCell id="oRRYTDGzjBKv7AgCxOXw-52" value="NO" style="text;html=1;align=center;verticalAlign=middle;resizable=0;points=[];autosize=1;strokeColor=none;fillColor=none;" vertex="1" parent="1">
          <mxGeometry x="665" y="880" width="30" height="20" as="geometry" />
        </mxCell>
        <mxCell id="oRRYTDGzjBKv7AgCxOXw-53" value="YES" style="text;html=1;align=center;verticalAlign=middle;resizable=0;points=[];autosize=1;strokeColor=none;fillColor=none;" vertex="1" parent="1">
          <mxGeometry x="390" y="880" width="40" height="20" as="geometry" />
        </mxCell>
        <mxCell id="oRRYTDGzjBKv7AgCxOXw-60" style="edgeStyle=orthogonalEdgeStyle;rounded=0;orthogonalLoop=1;jettySize=auto;html=1;entryX=0.5;entryY=0;entryDx=0;entryDy=0;" edge="1" parent="1" source="oRRYTDGzjBKv7AgCxOXw-54" target="oRRYTDGzjBKv7AgCxOXw-59">
          <mxGeometry relative="1" as="geometry" />
        </mxCell>
        <mxCell id="oRRYTDGzjBKv7AgCxOXw-54" value="Admin (reception) confirms booking" style="rounded=0;whiteSpace=wrap;html=1;" vertex="1" parent="1">
          <mxGeometry x="500" y="1275" width="120" height="60" as="geometry" />
        </mxCell>
        <mxCell id="oRRYTDGzjBKv7AgCxOXw-59" value="END" style="ellipse;whiteSpace=wrap;html=1;" vertex="1" parent="1">
          <mxGeometry x="500" y="1360" width="120" height="60" as="geometry" />
        </mxCell>
      </root>
    </mxGraphModel>
  </diagram>
</mxfile>
